<svg xmlns="http://www.w3.org/2000/svg" viewBox="20 45 225 90" role="img" aria-labelledby="title desc">
  <title id="title">MiddleClass logo</title>
  <desc id="desc">Blue class dot followed by an MC monogram.</desc>

  <!-- .MC mark -->
  <circle cx="48" cy="111" r="15" fill="#2563EB"/>

  <!-- M -->
  <path
    d="M78 126V54h18l28 30 28-30h18v72h-18V79l-26 28h-4L96 79v47z"
    fill="#0F172A"
  />

  <!-- C -->
  <path
    d="M232 63c-8-8-18-12-31-12-24 0-42 17-42 39s18 39 42 39c13 0 24-4 32-13l-11-13c-5 5-12 8-20 8-14 0-24-9-24-21 0-13 10-21 24-21 8 0 14 2 19 7z"
    fill="#0F172A"
  />
</svg>
